<?xml version="1.0" encoding="utf-8"?>
<!-- Generator: Adobe Illustrator 22.0.0, SVG Export Plug-In . SVG Version: 6.00 Build 0)  -->
<svg version="1.1" id="Layer_1" xmlns="http://www.w3.org/2000/svg" xmlns:xlink="http://www.w3.org/1999/xlink" x="0px" y="0px"
	 viewBox="0 0 127.2 134.5" style="enable-background:new 0 0 127.2 134.5;" xml:space="preserve">
<style type="text/css">
	.st0{fill:#478A97;}
</style>
<g>
	<g>
		<g>
			<path class="st0" d="M9.6,19.1L9.6,19.1c-2.2,0.5-4.3,1.6-6.1,3.3c-4.8,4.8-4.8,12.6,0,17.4s12.6,4.8,17.4,0
				c1.7-1.7,2.8-3.8,3.3-6.1l0,0l0-0.1c0-0.2,0.1-0.3,0.1-0.5l3.2-17.4L10.2,19c-0.2,0-0.3,0.1-0.5,0.1L9.6,19.1z"/>
		</g>
		<g>
			<path class="st0" d="M9.6,19.1L9.6,19.1c-2.2,0.5-4.3,1.6-6.1,3.3c-4.8,4.8-4.8,12.6,0,17.4s12.6,4.8,17.4,0
				c1.7-1.7,2.8-3.8,3.3-6.1l0,0l0-0.1c0-0.2,0.1-0.3,0.1-0.5l3.2-17.4L10.2,19c-0.2,0-0.3,0.1-0.5,0.1L9.6,19.1z"/>
			<path class="st0" d="M117.5,19.1L117.5,19.1c2.2,0.5,4.3,1.6,6.1,3.3c4.8,4.8,4.8,12.6,0,17.4c-4.8,4.8-12.6,4.8-17.4,0
				c-1.7-1.7-2.8-3.8-3.3-6.1l0,0l0-0.1c0-0.2-0.1-0.3-0.1-0.5l-3.2-17.4l17.4,3.2c0.2,0,0.3,0.1,0.5,0.1L117.5,19.1z"/>
		</g>
		<path class="st0" d="M111.9,44.1c-2.4-0.5-4.6-1.7-6.5-3.6c-1.4-1.4-2.4-3-3.1-4.8l-0.2,0.2l-0.4-2.1c0-0.2-0.1-0.3-0.1-0.5
			l-3.5-18.7C89.4,5.6,77.1,0,63.5,0C50,0,37.8,5.5,29,14.5l-3.5,18.9c0,0.2-0.1,0.3-0.1,0.5l-0.4,2l-0.2-0.1
			c-0.7,1.8-1.7,3.5-3.1,4.9c-1.9,1.9-4.2,3.1-6.6,3.6c-0.1,1.5-0.2,3-0.2,4.5c0,9.7,2.8,18.7,7.7,26.2l0,0l0.3,0.4
			c0.4,0.5,0.7,1.1,1.1,1.6l39.6,57.7l39.6-57.7c0.4-0.5,0.7-1.1,1.1-1.6l0.3-0.4l0,0c4.9-7.6,7.7-16.6,7.7-26.2
			C112.1,47.1,112,45.6,111.9,44.1z M63.5,79.5c-17.1,0-30.9-13.8-30.9-30.9c0-17.1,13.8-30.9,30.9-30.9c17.1,0,30.9,13.8,30.9,30.9
			C94.4,65.7,80.6,79.5,63.5,79.5z"/>
		<rect x="56.6" y="29.6" class="st0" width="13.9" height="37.7"/>
		
			<rect x="56.6" y="29.6" transform="matrix(-1.836970e-16 1 -1 -1.836970e-16 111.9351 -15.0963)" class="st0" width="13.9" height="37.7"/>
	</g>
</g>
</svg>
