<?xml version="1.0" encoding="utf-8"?>
<!-- Generator: Adobe Illustrator 22.0.0, SVG Export Plug-In . SVG Version: 6.00 Build 0)  -->
<svg version="1.1" id="Layer_1" xmlns="http://www.w3.org/2000/svg" xmlns:xlink="http://www.w3.org/1999/xlink" x="0px" y="0px"
	 viewBox="0 0 1063.5 134.5" style="enable-background:new 0 0 1063.5 134.5;" xml:space="preserve">
<style type="text/css">
	.st0{fill:#478A97;}
</style>
<g>
	<g>
		<g>
			<path class="st0" d="M9.6,19.1L9.6,19.1c-2.2,0.5-4.3,1.6-6.1,3.3c-4.8,4.8-4.8,12.6,0,17.4s12.6,4.8,17.4,0
				c1.7-1.7,2.8-3.8,3.3-6.1l0,0l0-0.1c0-0.2,0.1-0.3,0.1-0.5l3.2-17.4L10.2,19c-0.2,0-0.3,0.1-0.5,0.1L9.6,19.1z"/>
		</g>
		<g>
			<path class="st0" d="M9.6,19.1L9.6,19.1c-2.2,0.5-4.3,1.6-6.1,3.3c-4.8,4.8-4.8,12.6,0,17.4s12.6,4.8,17.4,0
				c1.7-1.7,2.8-3.8,3.3-6.1l0,0l0-0.1c0-0.2,0.1-0.3,0.1-0.5l3.2-17.4L10.2,19c-0.2,0-0.3,0.1-0.5,0.1L9.6,19.1z"/>
			<path class="st0" d="M117.5,19.1L117.5,19.1c2.2,0.5,4.3,1.6,6.1,3.3c4.8,4.8,4.8,12.6,0,17.4c-4.8,4.8-12.6,4.8-17.4,0
				c-1.7-1.7-2.8-3.8-3.3-6.1l0,0l0-0.1c0-0.2-0.1-0.3-0.1-0.5l-3.2-17.4l17.4,3.2c0.2,0,0.3,0.1,0.5,0.1L117.5,19.1z"/>
		</g>
		<path class="st0" d="M111.9,44.1c-2.4-0.5-4.6-1.7-6.5-3.6c-1.4-1.4-2.4-3-3.1-4.8l-0.2,0.2l-0.4-2.1c0-0.2-0.1-0.3-0.1-0.5
			l-3.5-18.7C89.4,5.6,77.1,0,63.5,0C50,0,37.8,5.5,29,14.5l-3.5,18.9c0,0.2-0.1,0.3-0.1,0.5l-0.4,2l-0.2-0.1
			c-0.7,1.8-1.7,3.5-3.1,4.9c-1.9,1.9-4.2,3.1-6.6,3.6c-0.1,1.5-0.2,3-0.2,4.5c0,9.7,2.8,18.7,7.7,26.2l0,0l0.3,0.4
			c0.4,0.5,0.7,1.1,1.1,1.6l39.6,57.7l39.6-57.7c0.4-0.5,0.7-1.1,1.1-1.6l0.3-0.4l0,0c4.9-7.6,7.7-16.6,7.7-26.2
			C112.1,47.1,112,45.6,111.9,44.1z M63.5,79.5c-17.1,0-30.9-13.8-30.9-30.9c0-17.1,13.8-30.9,30.9-30.9c17.1,0,30.9,13.8,30.9,30.9
			C94.4,65.7,80.6,79.5,63.5,79.5z"/>
		<rect x="56.6" y="29.6" class="st0" width="13.9" height="37.7"/>
		
			<rect x="56.6" y="29.6" transform="matrix(-1.836970e-16 1 -1 -1.836970e-16 111.9351 -15.0963)" class="st0" width="13.9" height="37.7"/>
	</g>
	<g>
		<path class="st0" d="M247.6,6.7H274l-41.9,123.4h-28.5L161.7,6.7h26.4l23.2,73.4c1.3,4.3,2.6,9.4,4,15.1c1.4,5.8,2.2,9.8,2.6,12
			c0.6-5.2,2.7-14.2,6.3-27.2L247.6,6.7z"/>
		<path class="st0" d="M330.2,131.8c-15.2,0-27.1-4.2-35.6-12.6c-8.6-8.4-12.8-20.3-12.8-35.6c0-15.8,4-28,11.9-36.7
			c7.9-8.6,18.8-13,32.8-13c13.3,0,23.7,3.8,31.1,11.4c7.4,7.6,11.1,18.1,11.1,31.5v12.5h-60.8c0.3,7.3,2.4,13,6.5,17.1
			c4.1,4.1,9.7,6.2,17,6.2c5.7,0,11.1-0.6,16.1-1.8c5.1-1.2,10.4-3.1,15.9-5.7v19.9c-4.5,2.3-9.3,3.9-14.4,5
			C343.9,131.2,337.6,131.8,330.2,131.8z M326.6,52.3c-5.5,0-9.7,1.7-12.8,5.2c-3.1,3.5-4.9,8.4-5.3,14.7h36.1
			c-0.1-6.4-1.8-11.3-5-14.7C336.4,54,332.1,52.3,326.6,52.3z"/>
		<path class="st0" d="M429.4,111.2c4.5,0,9.9-1,16.2-3v19.2c-6.4,2.9-14.3,4.3-23.6,4.3c-10.3,0-17.8-2.6-22.5-7.8
			c-4.7-5.2-7-13-7-23.4V55h-12.3V44.2l14.2-8.6l7.4-19.9h16.5v20.1h26.4V55h-26.4v45.5c0,3.7,1,6.4,3.1,8.1
			C423.3,110.4,426,111.2,429.4,111.2z"/>
		<path class="st0" d="M558.3,130.1h-8.7L476.6,20.5h-0.7c0.7,13.1,1,22.9,1,29.5v80h-8.3V6.7h8.6l73,109.4h0.5
			c-0.5-10.1-0.8-19.7-0.8-28.9V6.7h8.4V130.1z"/>
		<path class="st0" d="M628.2,131.8c-13.3,0-23.7-4.1-31.2-12.3c-7.5-8.2-11.2-19.7-11.2-34.5c0-14.6,3.6-26.3,10.8-35.1
			c7.2-8.8,16.9-13.2,29.1-13.2c10.8,0,19.3,3.8,25.6,11.3c6.2,7.5,9.4,17.8,9.4,30.7v6.8h-66.1c0.1,12.6,3.1,22.2,8.8,28.9
			c5.8,6.6,14,10,24.8,10c5.2,0,9.8-0.4,13.8-1.1c4-0.7,9-2.3,15.1-4.7v7.6c-5.2,2.3-10,3.8-14.3,4.6S633.5,131.8,628.2,131.8z
			 M625.8,44c-8.8,0-15.9,2.9-21.3,8.7c-5.3,5.8-8.5,14.2-9.4,25.2h56.7c0-10.6-2.3-18.9-6.9-24.9C640.3,47,633.9,44,625.8,44z"/>
		<path class="st0" d="M741.7,130.1l-2.1-14.5h-0.7c-4.6,5.9-9.4,10.1-14.2,12.5c-4.9,2.4-10.6,3.7-17.3,3.7c-9,0-16-2.3-21-6.9
			c-5-4.6-7.5-11-7.5-19.2c0-8.9,3.7-15.9,11.2-20.8c7.5-4.9,18.2-7.6,32.4-7.8l17.5-0.5v-6.1c0-8.7-1.8-15.3-5.3-19.7
			c-3.5-4.4-9.3-6.7-17.1-6.7c-8.5,0-17.3,2.4-26.4,7.1l-3.1-7.3c10.1-4.7,20-7.1,29.9-7.1c10.1,0,17.6,2.6,22.6,7.8
			c5,5.2,7.5,13.4,7.5,24.5v61H741.7z M708,124.2c9.8,0,17.5-2.8,23.2-8.4c5.7-5.6,8.5-13.4,8.5-23.3v-9l-16,0.7
			c-12.9,0.6-22.1,2.6-27.6,6c-5.5,3.4-8.2,8.7-8.2,15.9c0,5.7,1.8,10.2,5.3,13.4C696.6,122.6,701.6,124.2,708,124.2z"/>
		<path class="st0" d="M813.7,36.6c3.9,0,8,0.4,12.5,1.2l-1.6,8c-3.8-1-7.8-1.4-11.9-1.4c-7.8,0-14.2,3.3-19.2,10
			c-5,6.6-7.5,15-7.5,25.1v50.6h-8.4V38.3h7.1l0.8,16.5h0.6c3.8-6.8,7.8-11.5,12.1-14.2C802.5,37.9,807.6,36.6,813.7,36.6z"/>
		<path class="st0" d="M901.2,130.1l-46-113.9h-0.7c0.4,7,0.7,14.1,0.7,21.4v92.5H847V6.7h13.3L904,115.2h0.5L948.2,6.7h13v123.4
			h-8.7V36.6c0-6.5,0.3-13.3,1-20.3h-0.7l-46.2,113.8H901.2z"/>
		<path class="st0" d="M1031,131.8c-13.3,0-23.7-4.1-31.2-12.3c-7.5-8.2-11.2-19.7-11.2-34.5c0-14.6,3.6-26.3,10.8-35.1
			c7.2-8.8,16.9-13.2,29.1-13.2c10.8,0,19.3,3.8,25.6,11.3s9.4,17.8,9.4,30.7v6.8h-66.1c0.1,12.6,3.1,22.2,8.8,28.9
			c5.8,6.6,14,10,24.8,10c5.2,0,9.8-0.4,13.8-1.1c4-0.7,9-2.3,15.1-4.7v7.6c-5.2,2.3-10,3.8-14.3,4.6
			C1041.1,131.3,1036.3,131.8,1031,131.8z M1028.6,44c-8.8,0-15.9,2.9-21.3,8.7c-5.3,5.8-8.5,14.2-9.4,25.2h56.7
			c0-10.6-2.3-18.9-6.9-24.9C1043.1,47,1036.7,44,1028.6,44z"/>
	</g>
</g>
</svg>
